# xmcd
#
# Track frame offsets:
#	150
#	19583
#	42494
#	57458
#	72641
#	87711
#	104179
#	119068
#	137171
#	153425
#	165357
#	179080
#	193704
#	209907
#	234850
#
# Disc length: 3319 seconds
#
# Revision: 0
# Processed by: cddbd v1.5.2PL0 Copyright (c) Steve Scherf et al.
# Submitted via: audiograbber 1.83.01
#
DISCID=ee0cf50f
DTITLE=Country Sommer - Country Sommer (disc1)
DYEAR=2008
DGENRE=Country
TTITLE0=Liv Marit Wedvik and Christian Ingebrigtsen - Better Love Next Time
TTITLE1=Alan Jackson - Good Time
TTITLE2=Big and Rich - Save A Horse (Ride A Cowboy
TTITLE3=Billy Ray Cyrus - Achy Breaky Heart
TTITLE4=Steff Nevers - One Beer A Day
TTITLE5=Brooks and Dunn - You Can´t Take The Honky Tonk Out Of The Girl
TTITLE6=Carrie Underwood - Before He Cheats
TTITLE7=Brad Paisley - The World
TTITLE8=Rascal Flatts - Me And My Gang
TTITLE9=Travis Tritt With Mary Stuart - The Whiskey Ain´t Working
TTITLE10=Dwight Yoakam - Guitars, Cadillacs
TTITLE11=Mavericks - There Goes My Heart
TTITLE12=Too Far Gone - Zetor´n
TTITLE13=Toby Keith - I Love This Bar
TTITLE14=Arne Benoni and Lynn Anderson - Even If It Takes Forever
EXTD=
EXTT0=
EXTT1=
EXTT2=
EXTT3=
EXTT4=
EXTT5=
EXTT6=
EXTT7=
EXTT8=
EXTT9=
EXTT10=
EXTT11=
EXTT12=
EXTT13=
EXTT14=
PLAYORDER=
